<svg width="148" height="185" viewBox="0 0 148 185" fill="none" xmlns="http://www.w3.org/2000/svg">
<path fill-rule="evenodd" clip-rule="evenodd" d="M0.000513077 72.8573V37.5695L34.6017 19.3702L68.3979 37.6723L0.000513077 72.8573Z" fill="#F0AB00"/>
<path fill-rule="evenodd" clip-rule="evenodd" d="M107.113 53.7565L39.295 17.0247L73.8697 5.34058e-05L143.49 35.5367L107.113 53.7565Z" fill="#F0AB00"/>
<path fill-rule="evenodd" clip-rule="evenodd" d="M111.494 166.354L78.5986 149.436L146.103 114.98V148.825L111.494 166.354Z" fill="#F0AB00"/>
<path fill-rule="evenodd" clip-rule="evenodd" d="M38.4357 168.14V133.614L106.678 168.71L73.0541 185L38.4357 168.14Z" fill="#F0AB00"/>
<path fill-rule="evenodd" clip-rule="evenodd" d="M0.000513077 148.127V77.6891L34.139 60.1361V165.939L0.000513077 148.127Z" fill="#F0AB00"/>
<path fill-rule="evenodd" clip-rule="evenodd" d="M112.371 90.3886L78.6129 72.8328L146.103 39.0337V73.1818L112.371 90.3886Z" fill="black"/>
<path fill-rule="evenodd" clip-rule="evenodd" d="M76.0351 111.648V76.336L143.56 111.453L107.959 129.624L76.0351 111.648Z" fill="black"/>
</svg>
