<svg width="570" height="101" viewBox="0 0 570 101" fill="none" xmlns="http://www.w3.org/2000/svg">
<path d="M103.27 84.924V14H131.317C134.526 14 137.627 14.2495 140.62 14.7485C143.644 15.2164 146.313 16.1053 148.627 17.4152C150.972 18.7251 152.838 20.5185 154.227 22.7953C155.646 25.0721 156.356 27.9883 156.356 31.5439C156.356 34.039 155.986 36.2378 155.245 38.1404C154.505 40.0117 153.517 41.6023 152.283 42.9123C151.08 44.2222 149.66 45.2826 148.025 46.0936C146.421 46.8733 144.739 47.4503 142.98 47.8246V48.0585C145.109 48.4327 147.084 49.0253 148.904 49.8363C150.756 50.616 152.376 51.692 153.764 53.0643C155.153 54.4366 156.232 56.1364 157.004 58.1637C157.806 60.1598 158.207 62.5614 158.207 65.3684C158.207 68.9552 157.498 71.9961 156.078 74.4912C154.659 76.9864 152.761 78.998 150.386 80.5263C148.041 82.0546 145.325 83.1774 142.24 83.8947C139.185 84.5809 136.023 84.924 132.752 84.924H103.27ZM118.405 73.0409H130.854C135.143 73.0409 138.26 72.23 140.203 70.6082C142.178 68.9863 143.166 66.6316 143.166 63.5439C143.166 57.3684 138.83 54.2807 130.16 54.2807H118.405V73.0409ZM118.405 43.2398H129.79C133.832 43.2398 136.794 42.5068 138.676 41.0409C140.589 39.575 141.546 37.4698 141.546 34.7251C141.546 31.9181 140.651 29.7817 138.861 28.3158C137.103 26.8499 134.141 26.117 129.975 26.117H118.405V43.2398Z" fill="black"/>
<path d="M169.407 84.924V33.8363H184.68V42.3977H184.773C185.452 41.306 186.285 40.1988 187.272 39.076C188.26 37.9532 189.432 36.9396 190.79 36.0351C192.147 35.0994 193.721 34.3353 195.51 33.7427C197.331 33.1189 199.429 32.807 201.805 32.807H202.314L202.083 46.5146C201.774 46.4522 201.157 46.3899 200.231 46.3275C199.336 46.2651 198.627 46.2339 198.102 46.2339C195.079 46.2339 192.44 46.9357 190.188 48.3392C187.967 49.7427 186.131 51.3645 184.68 53.2047V84.924H169.407Z" fill="black"/>
<path d="M205.369 59.4269C205.369 54.4366 206.14 50.2417 207.683 46.8421C209.225 43.4113 211.231 40.6667 213.699 38.6082C216.168 36.5185 218.929 35.037 221.984 34.1637C225.038 33.2593 228.124 32.807 231.24 32.807C234.264 32.807 237.303 33.2593 240.358 34.1637C243.443 35.037 246.205 36.5185 248.642 38.6082C251.111 40.6667 253.116 43.4113 254.659 46.8421C256.232 50.2417 257.019 54.4366 257.019 59.4269C257.019 64.4172 256.232 68.6121 254.659 72.0117C253.116 75.3801 251.111 78.1092 248.642 80.1988C246.205 82.2573 243.443 83.7388 240.358 84.6433C237.303 85.5477 234.264 86 231.24 86C228.186 86 225.116 85.5477 222.03 84.6433C218.945 83.7388 216.168 82.2573 213.699 80.1988C211.231 78.1092 209.225 75.3801 207.683 72.0117C206.14 68.6121 205.369 64.4172 205.369 59.4269ZM220.595 59.5205C220.595 61.6413 220.78 63.6686 221.151 65.6023C221.552 67.5049 222.169 69.1579 223.002 70.5614C223.866 71.9649 224.961 73.0877 226.288 73.9298C227.615 74.7407 229.265 75.1462 231.24 75.1462C234.819 75.1462 237.457 73.7115 239.154 70.8421C240.882 67.9727 241.746 64.1988 241.746 59.5205C241.746 57.4308 241.546 55.4503 241.145 53.5789C240.774 51.6764 240.157 50.0234 239.293 48.6199C238.46 47.2164 237.38 46.1248 236.054 45.345C234.727 44.5341 233.122 44.1287 231.24 44.1287C227.568 44.1287 224.869 45.5478 223.141 48.386C221.444 51.2242 220.595 54.9357 220.595 59.5205Z" fill="black"/>
<path d="M261.601 71.8713C261.601 66.0078 264.162 61.423 269.284 58.117C274.406 54.7797 282.521 52.6589 293.628 51.7544V50.538C293.628 48.6667 293.104 47.1852 292.055 46.0936C291.037 44.9708 289.293 44.4094 286.825 44.4094C283.616 44.4094 280.623 45.0019 277.846 46.1871C275.1 47.3411 272.57 48.8538 270.256 50.7251L263.776 41.883C265.041 40.7602 266.476 39.653 268.081 38.5614C269.716 37.4698 271.536 36.5029 273.542 35.6608C275.578 34.7875 277.877 34.1014 280.438 33.6023C282.999 33.0721 285.853 32.807 289 32.807C295.942 32.807 300.925 34.5068 303.949 37.9064C307.004 41.2749 308.531 46.2495 308.531 52.8304V72.4795C308.531 75.5361 308.639 78.0624 308.855 80.0585C309.071 82.0234 309.441 83.6452 309.966 84.924H294.785C294.477 83.8324 294.199 82.6784 293.952 81.462C293.736 80.2456 293.628 78.9045 293.628 77.4386C291.314 80.1208 288.738 82.1637 285.899 83.5672C283.091 84.9708 279.805 85.6725 276.041 85.6725C274.066 85.6725 272.2 85.3762 270.441 84.7836C268.713 84.1598 267.186 83.2709 265.859 82.117C264.532 80.9318 263.483 79.4815 262.712 77.7661C261.971 76.0195 261.601 74.0546 261.601 71.8713ZM276.504 69.2047C276.504 70.8577 277.013 72.0897 278.031 72.9006C279.08 73.7115 280.438 74.117 282.104 74.117C284.758 74.117 287.025 73.6959 288.908 72.8538C290.821 72.0117 292.394 70.9513 293.628 69.6725V60.2222C287.581 60.846 283.215 61.9064 280.531 63.4035C277.846 64.9006 276.504 66.8343 276.504 69.2047Z" fill="black"/>
<path d="M316.908 59.8012C316.908 55.4035 317.371 51.5361 318.297 48.1988C319.253 44.8304 320.595 42.0078 322.323 39.731C324.082 37.423 326.149 35.692 328.525 34.538C330.932 33.384 333.585 32.807 336.485 32.807C339.91 32.807 342.872 33.4308 345.372 34.6784C347.871 35.9259 350.031 37.7973 351.851 40.2924V14H367.124V72.4795C367.124 75.5361 367.232 78.0624 367.448 80.0585C367.664 82.0234 368.065 83.6452 368.651 84.924H353.008C352.823 84.6121 352.653 84.1754 352.499 83.614C352.376 83.0214 352.268 82.3665 352.175 81.6491C352.082 80.9006 352.005 80.152 351.944 79.4035C351.882 78.6238 351.851 77.9064 351.851 77.2515C350.216 79.5594 348.149 81.54 345.649 83.193C343.15 84.846 340.034 85.6725 336.3 85.6725C333.462 85.6725 330.839 85.1579 328.432 84.1287C326.057 83.0682 324.005 81.4932 322.277 79.4035C320.58 77.2826 319.253 74.6004 318.297 71.3567C317.371 68.0819 316.908 64.23 316.908 59.8012ZM332.135 59.7076C332.135 64.0117 332.922 67.4893 334.495 70.1403C336.1 72.7914 338.599 74.117 341.993 74.117C343.968 74.117 345.788 73.6023 347.454 72.5731C349.12 71.5439 350.586 70.3899 351.851 69.1111V50.2573C350.216 48.6355 348.642 47.4503 347.13 46.7017C345.618 45.922 343.844 45.5322 341.808 45.5322C335.359 45.5322 332.135 50.2573 332.135 59.7076Z" fill="black"/>
<path d="M375.455 71.8713C375.455 66.0078 378.016 61.423 383.138 58.117C388.26 54.7797 396.374 52.6589 407.482 51.7544V50.538C407.482 48.6667 406.958 47.1852 405.908 46.0936C404.89 44.9708 403.147 44.4094 400.679 44.4094C397.47 44.4094 394.477 45.0019 391.7 46.1871C388.954 47.3411 386.424 48.8538 384.11 50.7251L377.63 41.883C378.895 40.7602 380.33 39.653 381.934 38.5614C383.57 37.4698 385.39 36.5029 387.396 35.6608C389.432 34.7875 391.731 34.1014 394.292 33.6023C396.853 33.0721 399.707 32.807 402.854 32.807C409.796 32.807 414.779 34.5068 417.803 37.9064C420.858 41.2749 422.385 46.2495 422.385 52.8304V72.4795C422.385 75.5361 422.493 78.0624 422.709 80.0585C422.925 82.0234 423.295 83.6452 423.82 84.924H408.639C408.331 83.8324 408.053 82.6784 407.806 81.462C407.59 80.2456 407.482 78.9045 407.482 77.4386C405.168 80.1208 402.592 82.1637 399.753 83.5672C396.945 84.9708 393.659 85.6725 389.895 85.6725C387.92 85.6725 386.054 85.3762 384.295 84.7836C382.567 84.1598 381.04 83.2709 379.713 82.117C378.386 80.9318 377.337 79.4815 376.566 77.7661C375.825 76.0195 375.455 74.0546 375.455 71.8713ZM390.358 69.2047C390.358 70.8577 390.867 72.0897 391.885 72.9006C392.934 73.7115 394.292 74.117 395.958 74.117C398.611 74.117 400.879 73.6959 402.761 72.8538C404.674 72.0117 406.248 70.9513 407.482 69.6725V60.2222C401.435 60.846 397.069 61.9064 394.384 63.4035C391.7 64.9006 390.358 66.8343 390.358 69.2047Z" fill="black"/>
<path d="M430.762 59.4269C430.762 54.3119 431.564 50.0546 433.169 46.655C434.773 43.2242 436.825 40.4951 439.324 38.4678C441.823 36.4094 444.569 34.9591 447.562 34.117C450.555 33.2437 453.44 32.807 456.217 32.807C459.642 32.807 462.589 33.2437 465.057 34.117C467.525 34.9591 469.608 36.0975 471.305 37.5322C473.002 38.9669 474.39 40.6355 475.47 42.538C476.55 44.4094 477.476 46.3743 478.247 48.4327L465.427 52.7368C464.409 49.462 463.144 47.2164 461.632 46C460.12 44.7524 458.253 44.1287 456.032 44.1287C452.946 44.1287 450.494 45.423 448.673 48.0117C446.884 50.5692 445.989 54.4055 445.989 59.5205C445.989 61.8285 446.174 63.9337 446.544 65.8363C446.945 67.7076 447.531 69.345 448.303 70.7485C449.105 72.152 450.123 73.2437 451.357 74.0234C452.592 74.7719 454.088 75.1462 455.847 75.1462C457.883 75.1462 459.781 74.4912 461.539 73.1813C463.298 71.8713 464.718 69.501 465.797 66.0702L478.432 70.4678C477.599 72.4327 476.566 74.3665 475.332 76.269C474.097 78.1403 472.57 79.7934 470.75 81.2281C468.96 82.6628 466.816 83.8168 464.316 84.6901C461.848 85.5633 458.932 86 455.569 86C452.607 86 449.645 85.5477 446.683 84.6433C443.752 83.7388 441.098 82.2573 438.722 80.1988C436.377 78.1092 434.465 75.3801 432.983 72.0117C431.502 68.6121 430.762 64.4172 430.762 59.4269Z" fill="black"/>
<path d="M486.162 84.924V33.8363H501.435V42.3977H501.527C502.206 41.306 503.039 40.1988 504.026 39.076C505.014 37.9532 506.186 36.9396 507.544 36.0351C508.901 35.0994 510.475 34.3353 512.265 33.7427C514.085 33.1189 516.183 32.807 518.559 32.807H519.068L518.837 46.5146C518.528 46.4522 517.911 46.3899 516.985 46.3275C516.091 46.2651 515.381 46.2339 514.856 46.2339C511.833 46.2339 509.195 46.9357 506.942 48.3392C504.721 49.7427 502.885 51.3645 501.435 53.2047V84.924H486.162Z" fill="black"/>
<path d="M521.29 59.4269C521.29 54.4366 522.123 50.2573 523.789 46.8889C525.455 43.4893 527.553 40.7602 530.083 38.7018C532.613 36.6121 535.359 35.115 538.321 34.2105C541.283 33.2749 544.06 32.807 546.652 32.807C549.244 32.807 551.913 33.2125 554.659 34.0234C557.436 34.8031 559.935 36.2534 562.157 38.3743C564.409 40.4639 566.26 43.3489 567.71 47.0292C569.161 50.7095 569.886 55.4503 569.886 61.2515V63.5439H536.424C536.825 67.7544 538.075 70.7641 540.173 72.5731C542.302 74.3509 544.971 75.2398 548.179 75.2398C551.203 75.2398 554.026 74.616 556.649 73.3684C559.272 72.1208 561.447 70.7018 563.175 69.1111L569.053 78.3275C563.098 83.4425 555.77 86 547.069 86C543.767 86 540.558 85.5322 537.442 84.5965C534.357 83.6608 531.61 82.1637 529.204 80.1053C526.828 78.0156 524.915 75.2865 523.465 71.9181C522.015 68.5185 521.29 64.3548 521.29 59.4269ZM536.609 54.4678H556.233C555.492 47.3567 552.268 43.8012 546.56 43.8012C544.184 43.8012 542.07 44.6433 540.219 46.3275C538.398 47.9805 537.195 50.694 536.609 54.4678Z" fill="black"/>
<g clip-path="url(#clip0_3687:23463)">
<path fill-rule="evenodd" clip-rule="evenodd" d="M0.000171661 39.4847V20.3607L18.7522 10.4976L37.0678 20.4164L0.000171661 39.4847Z" fill="#F0AB00"/>
<path fill-rule="evenodd" clip-rule="evenodd" d="M58.0496 29.1331L21.2958 9.22645L40.0334 1.52588e-05L77.7639 19.259L58.0496 29.1331Z" fill="#F0AB00"/>
<path fill-rule="evenodd" clip-rule="evenodd" d="M60.424 90.1549L42.5964 80.9864L79.18 62.3129V80.6552L60.424 90.1549Z" fill="#F0AB00"/>
<path fill-rule="evenodd" clip-rule="evenodd" d="M20.8301 91.1229V72.4117L57.8137 91.4318L39.5914 100.26L20.8301 91.1229Z" fill="#F0AB00"/>
<path fill-rule="evenodd" clip-rule="evenodd" d="M0.000171661 80.2769V42.1033L18.5014 32.5905V89.9297L0.000171661 80.2769Z" fill="#F0AB00"/>
<path fill-rule="evenodd" clip-rule="evenodd" d="M60.899 48.9857L42.6039 39.4715L79.1798 21.1542V39.6606L60.899 48.9857Z" fill="black"/>
<path fill-rule="evenodd" clip-rule="evenodd" d="M41.207 60.5071V41.37L77.8019 60.4017L58.5082 70.2493L41.207 60.5071Z" fill="black"/>
</g>
<defs>
<clipPath id="clip0_3687:23463">
<rect width="79.8947" height="100.26" fill="white"/>
</clipPath>
</defs>
</svg>
