<svg width="570" height="101" viewBox="0 0 570 101" fill="none" xmlns="http://www.w3.org/2000/svg">
<path d="M103.27 84.9326V14H131.321C134.53 14 137.631 14.2495 140.625 14.7486C143.649 15.2165 146.318 16.1055 148.632 17.4156C150.978 18.7257 152.844 20.5193 154.233 22.7964C155.653 25.0735 156.362 27.99 156.362 31.546C156.362 34.0414 155.992 36.2405 155.251 38.1433C154.511 40.0148 153.523 41.6057 152.289 42.9158C151.086 44.2259 149.666 45.2864 148.031 46.0975C146.426 46.8773 144.744 47.4543 142.985 47.8287V48.0626C145.114 48.4369 147.089 49.0296 148.91 49.8406C150.762 50.6204 152.382 51.6966 153.77 53.0691C155.159 54.4415 156.239 56.1416 157.01 58.1691C157.813 60.1654 158.214 62.5673 158.214 65.3746C158.214 68.9618 157.504 72.0031 156.085 74.4986C154.665 76.994 152.767 79.0059 150.391 80.5344C148.046 82.0628 145.33 83.1858 142.245 83.9032C139.19 84.5895 136.027 84.9326 132.756 84.9326H103.27ZM118.406 73.0481H130.858C135.147 73.0481 138.264 72.2371 140.208 70.615C142.183 68.993 143.17 66.638 143.17 63.5499C143.17 57.3737 138.835 54.2856 130.164 54.2856H118.406V73.0481ZM118.406 43.2433H129.793C133.836 43.2433 136.798 42.5103 138.68 41.0442C140.594 39.5781 141.55 37.4726 141.55 34.7277C141.55 31.9203 140.655 29.7836 138.866 28.3175C137.107 26.8515 134.144 26.1184 129.978 26.1184H118.406V43.2433Z" fill="white"/>
<path d="M169.415 84.9326V33.8387H184.69V42.4011H184.783C185.462 41.3093 186.295 40.202 187.282 39.0791C188.27 37.9561 189.443 36.9424 190.8 36.0378C192.158 35.102 193.732 34.3377 195.522 33.7451C197.342 33.1212 199.441 32.8093 201.817 32.8093H202.326L202.094 46.5186C201.786 46.4562 201.169 46.3938 200.243 46.3314C199.348 46.269 198.638 46.2378 198.114 46.2378C195.09 46.2378 192.451 46.9397 190.199 48.3433C187.977 49.747 186.141 51.3691 184.69 53.2094V84.9326H169.415Z" fill="white"/>
<path d="M205.381 59.4324C205.381 54.4415 206.152 50.2461 207.695 46.8461C209.238 43.4149 211.244 40.6699 213.713 38.6112C216.181 36.5212 218.943 35.0396 221.998 34.1662C225.053 33.2616 228.139 32.8093 231.256 32.8093C234.28 32.8093 237.319 33.2616 240.374 34.1662C243.46 35.0396 246.222 36.5212 248.66 38.6112C251.129 40.6699 253.134 43.4149 254.677 46.8461C256.251 50.2461 257.038 54.4415 257.038 59.4324C257.038 64.4233 256.251 68.6187 254.677 72.0187C253.134 75.3876 251.129 78.1169 248.66 80.2069C246.222 82.2656 243.46 83.7472 240.374 84.6518C237.319 85.5564 234.28 86.0087 231.256 86.0087C228.201 86.0087 225.13 85.5564 222.044 84.6518C218.959 83.7472 216.181 82.2656 213.713 80.2069C211.244 78.1169 209.238 75.3876 207.695 72.0187C206.152 68.6187 205.381 64.4233 205.381 59.4324ZM220.61 59.526C220.61 61.6471 220.795 63.6746 221.165 65.6086C221.566 67.5114 222.183 69.1646 223.016 70.5683C223.881 71.9719 224.976 73.0949 226.303 73.9371C227.63 74.7481 229.281 75.1536 231.256 75.1536C234.835 75.1536 237.474 73.7187 239.171 70.849C240.899 67.9792 241.763 64.2049 241.763 59.526C241.763 57.4361 241.562 55.4553 241.161 53.5837C240.791 51.681 240.174 50.0278 239.31 48.6241C238.477 47.2204 237.397 46.1287 236.07 45.3488C234.743 44.5378 233.138 44.1323 231.256 44.1323C227.584 44.1323 224.883 45.5516 223.155 48.3901C221.458 51.2287 220.61 54.9406 220.61 59.526Z" fill="white"/>
<path d="M261.62 71.8784C261.62 66.0141 264.182 61.4287 269.304 58.1223C274.427 54.7847 282.542 52.6636 293.651 51.759V50.5424C293.651 48.6709 293.127 47.1892 292.078 46.0975C291.059 44.9745 289.316 44.413 286.847 44.413C283.638 44.413 280.645 45.0057 277.867 46.191C275.121 47.3452 272.591 48.858 270.276 50.7296L263.796 41.8864C265.061 40.7635 266.496 39.6561 268.101 38.5644C269.736 37.4726 271.557 36.5056 273.563 35.6634C275.599 34.79 277.898 34.1038 280.459 33.6047C283.021 33.0744 285.875 32.8093 289.023 32.8093C295.966 32.8093 300.949 34.5093 303.974 37.9093C307.029 41.2782 308.556 46.2534 308.556 52.8351V72.4866C308.556 75.5435 308.664 78.0701 308.88 80.0665C309.096 82.0316 309.466 83.6537 309.991 84.9326H294.809C294.5 83.8408 294.222 82.6867 293.975 81.4702C293.759 80.2536 293.651 78.9123 293.651 77.4463C291.337 80.1289 288.76 82.172 285.921 83.5757C283.113 84.9794 279.827 85.6812 276.062 85.6812C274.087 85.6812 272.22 85.3849 270.461 84.7922C268.733 84.1683 267.206 83.2793 265.879 82.1252C264.552 80.9399 263.503 79.4894 262.731 77.7738C261.991 76.027 261.62 74.0619 261.62 71.8784ZM276.525 69.2114C276.525 70.8646 277.034 72.0967 278.052 72.9077C279.102 73.7187 280.459 74.1242 282.126 74.1242C284.78 74.1242 287.048 73.7031 288.93 72.8609C290.843 72.0187 292.417 70.9582 293.651 69.6793V60.2278C287.603 60.8517 283.237 61.9122 280.552 63.4095C277.867 64.9068 276.525 66.8407 276.525 69.2114Z" fill="white"/>
<path d="M316.934 59.8067C316.934 55.4085 317.397 51.5406 318.323 48.203C319.279 44.8341 320.622 42.0112 322.35 39.7341C324.109 37.4258 326.176 35.6946 328.552 34.5405C330.959 33.3864 333.613 32.8093 336.514 32.8093C339.939 32.8093 342.901 33.4332 345.401 34.6809C347.9 35.9286 350.061 37.8002 351.881 40.2956V14H367.156V72.4866C367.156 75.5435 367.264 78.0701 367.48 80.0665C367.696 82.0316 368.097 83.6537 368.684 84.9326H353.038C352.853 84.6206 352.684 84.1839 352.529 83.6225C352.406 83.0298 352.298 82.3748 352.205 81.6573C352.113 80.9087 352.036 80.1601 351.974 79.4114C351.912 78.6316 351.881 77.9142 351.881 77.2591C350.246 79.5674 348.178 81.5481 345.679 83.2014C343.179 84.8546 340.062 85.6812 336.329 85.6812C333.49 85.6812 330.867 85.1665 328.46 84.1372C326.084 83.0766 324.031 81.5014 322.303 79.4114C320.606 77.2903 319.279 74.6077 318.323 71.3637C317.397 68.0884 316.934 64.2361 316.934 59.8067ZM332.163 59.7131C332.163 64.0178 332.95 67.4958 334.523 70.1472C336.128 72.7985 338.628 74.1242 342.022 74.1242C343.997 74.1242 345.818 73.6096 347.484 72.5802C349.15 71.5508 350.616 70.3967 351.881 69.1178V50.2617C350.246 48.6397 348.672 47.4543 347.16 46.7057C345.648 45.9259 343.873 45.536 341.837 45.536C335.387 45.536 332.163 50.2617 332.163 59.7131Z" fill="white"/>
<path d="M375.488 71.8784C375.488 66.0141 378.049 61.4287 383.172 58.1223C388.294 54.7847 396.41 52.6636 407.519 51.759V50.5424C407.519 48.6709 406.994 47.1892 405.945 46.0975C404.927 44.9745 403.183 44.413 400.715 44.413C397.505 44.413 394.512 45.0057 391.735 46.191C388.988 47.3452 386.458 48.858 384.144 50.7296L377.663 41.8864C378.929 40.7635 380.364 39.6561 381.968 38.5644C383.604 37.4726 385.424 36.5056 387.43 35.6634C389.467 34.79 391.766 34.1038 394.327 33.6047C396.888 33.0744 399.743 32.8093 402.89 32.8093C409.833 32.8093 414.817 34.5093 417.841 37.9093C420.896 41.2782 422.424 46.2534 422.424 52.8351V72.4866C422.424 75.5435 422.532 78.0701 422.748 80.0665C422.964 82.0316 423.334 83.6537 423.858 84.9326H408.676C408.368 83.8408 408.09 82.6867 407.843 81.4702C407.627 80.2536 407.519 78.9123 407.519 77.4463C405.205 80.1289 402.628 82.172 399.789 83.5757C396.981 84.9794 393.694 85.6812 389.93 85.6812C387.955 85.6812 386.088 85.3849 384.329 84.7922C382.601 84.1683 381.073 83.2793 379.746 82.1252C378.419 80.9399 377.37 79.4894 376.599 77.7738C375.858 76.027 375.488 74.0619 375.488 71.8784ZM390.393 69.2114C390.393 70.8646 390.902 72.0967 391.92 72.9077C392.969 73.7187 394.327 74.1242 395.993 74.1242C398.647 74.1242 400.915 73.7031 402.798 72.8609C404.711 72.0187 406.285 70.9582 407.519 69.6793V60.2278C401.471 60.8517 397.104 61.9122 394.42 63.4095C391.735 64.9068 390.393 66.8407 390.393 69.2114Z" fill="white"/>
<path d="M430.802 59.4324C430.802 54.3168 431.604 50.0589 433.209 46.6589C434.813 43.2277 436.865 40.4983 439.365 38.4708C441.864 36.4121 444.611 34.9616 447.604 34.1194C450.597 33.246 453.483 32.8093 456.26 32.8093C459.685 32.8093 462.632 33.246 465.101 34.1194C467.569 34.9616 469.652 36.1001 471.35 37.535C473.047 38.9699 474.435 40.6387 475.515 42.5415C476.596 44.413 477.521 46.3782 478.293 48.4369L465.471 52.7415C464.453 49.4663 463.188 47.2204 461.676 46.0039C460.163 44.7562 458.296 44.1323 456.075 44.1323C452.989 44.1323 450.536 45.4268 448.715 48.0158C446.925 50.5736 446.03 54.4104 446.03 59.526C446.03 61.8343 446.215 63.9398 446.586 65.8425C446.987 67.7141 447.573 69.3517 448.345 70.7554C449.147 72.1591 450.165 73.2508 451.4 74.0307C452.634 74.7793 454.131 75.1536 455.89 75.1536C457.926 75.1536 459.824 74.4986 461.583 73.1885C463.342 71.8784 464.761 69.5077 465.841 66.0765L478.478 70.4747C477.645 72.4398 476.611 74.3738 475.377 76.2765C474.142 78.1481 472.615 79.8013 470.794 81.2362C469.004 82.6711 466.86 83.8252 464.36 84.6986C461.891 85.572 458.975 86.0087 455.612 86.0087C452.649 86.0087 449.687 85.5564 446.725 84.6518C443.793 83.7472 441.139 82.2656 438.763 80.2069C436.418 78.1169 434.505 75.3876 433.023 72.0187C431.542 68.6187 430.802 64.4233 430.802 59.4324Z" fill="white"/>
<path d="M486.208 84.9326V33.8387H501.483V42.4011H501.575C502.254 41.3093 503.087 40.202 504.075 39.0791C505.062 37.9561 506.235 36.9424 507.593 36.0378C508.951 35.102 510.524 34.3377 512.314 33.7451C514.135 33.1212 516.233 32.8093 518.609 32.8093H519.118L518.887 46.5186C518.578 46.4562 517.961 46.3938 517.035 46.3314C516.141 46.269 515.431 46.2378 514.906 46.2378C511.882 46.2378 509.244 46.9397 506.991 48.3433C504.769 49.747 502.933 51.3691 501.483 53.2094V84.9326H486.208Z" fill="white"/>
<path d="M521.34 59.4324C521.34 54.4415 522.173 50.2617 523.84 46.8929C525.506 43.4929 527.604 40.7635 530.135 38.7047C532.665 36.6148 535.412 35.1176 538.374 34.213C541.336 33.2772 544.114 32.8093 546.706 32.8093C549.298 32.8093 551.967 33.2148 554.714 34.0258C557.491 34.8056 559.99 36.2561 562.212 38.3772C564.465 40.4671 566.316 43.3525 567.767 47.0332C569.217 50.714 569.942 55.4553 569.942 61.2572V63.5499H536.476C536.877 67.7609 538.127 70.771 540.226 72.5802C542.355 74.3582 545.024 75.2472 548.233 75.2472C551.257 75.2472 554.081 74.6233 556.704 73.3756C559.327 72.1279 561.502 70.7086 563.231 69.1178L569.109 78.3353C563.153 83.4509 555.825 86.0087 547.122 86.0087C543.821 86.0087 540.611 85.5408 537.495 84.605C534.409 83.6693 531.662 82.172 529.255 80.1133C526.879 78.0233 524.966 75.294 523.516 71.9251C522.065 68.5251 521.34 64.3609 521.34 59.4324ZM536.661 54.4727H556.287C555.547 47.3608 552.322 43.8048 546.613 43.8048C544.237 43.8048 542.123 44.647 540.272 46.3314C538.451 47.9846 537.248 50.6984 536.661 54.4727Z" fill="white"/>
<path fill-rule="evenodd" clip-rule="evenodd" d="M0 39.2546V20.242L18.6426 10.4364L36.8515 20.2974L0 39.2546Z" fill="#F0AB00"/>
<path fill-rule="evenodd" clip-rule="evenodd" d="M57.711 28.9632L21.1716 9.17264L39.7999 0L77.3105 19.1466L57.711 28.9632Z" fill="#F0AB00"/>
<path fill-rule="evenodd" clip-rule="evenodd" d="M60.0719 89.6293L42.3482 80.5142L78.7185 61.9496V80.1849L60.0719 89.6293Z" fill="#F0AB00"/>
<path fill-rule="evenodd" clip-rule="evenodd" d="M20.7087 90.5917V71.9895L57.4766 90.8987L39.3606 99.6754L20.7087 90.5917Z" fill="#F0AB00"/>
<path fill-rule="evenodd" clip-rule="evenodd" d="M0 79.8089V41.8578L18.3934 32.4005V89.4054L0 79.8089Z" fill="#F0AB00"/>
<path fill-rule="evenodd" clip-rule="evenodd" d="M60.5439 48.7001L42.3555 39.2413L78.7181 21.0308V39.4293L60.5439 48.7001Z" fill="white"/>
<path fill-rule="evenodd" clip-rule="evenodd" d="M40.9669 60.1542V41.1288L77.3485 60.0495L58.1672 69.8396L40.9669 60.1542Z" fill="white"/>
</svg>
